<mxfile host="app.diagrams.net" agent="Mozilla/5.0 (Macintosh; Intel Mac OS X 10_15_7) AppleWebKit/605.1.15 (KHTML, like Gecko) Version/18.6 Safari/605.1.15" version="28.2.3">
  <diagram name="Page-1" id="LZ7tbfKP0IxgWmlLpSGS">
    <mxGraphModel dx="1148" dy="687" grid="1" gridSize="10" guides="1" tooltips="1" connect="1" arrows="1" fold="1" page="1" pageScale="1" pageWidth="850" pageHeight="1100" math="0" shadow="0">
      <root>
        <mxCell id="0" />
        <mxCell id="1" parent="0" />
        <mxCell id="JIYJ0liamTjXYSsqaaI1-1" value="" style="html=1;whiteSpace=wrap;" vertex="1" parent="1">
          <mxGeometry x="120" y="80" width="360" height="440" as="geometry" />
        </mxCell>
        <mxCell id="JIYJ0liamTjXYSsqaaI1-34" style="rounded=0;orthogonalLoop=1;jettySize=auto;html=1;exitX=0.5;exitY=0.5;exitDx=0;exitDy=0;exitPerimeter=0;entryX=0;entryY=0.5;entryDx=0;entryDy=0;" edge="1" parent="1" source="JIYJ0liamTjXYSsqaaI1-5" target="JIYJ0liamTjXYSsqaaI1-8">
          <mxGeometry relative="1" as="geometry" />
        </mxCell>
        <mxCell id="JIYJ0liamTjXYSsqaaI1-5" value="Customer" style="shape=umlActor;verticalLabelPosition=bottom;verticalAlign=top;html=1;" vertex="1" parent="1">
          <mxGeometry x="40" y="240" width="30" height="60" as="geometry" />
        </mxCell>
        <mxCell id="JIYJ0liamTjXYSsqaaI1-26" style="rounded=0;orthogonalLoop=1;jettySize=auto;html=1;exitX=0.5;exitY=0.5;exitDx=0;exitDy=0;exitPerimeter=0;" edge="1" parent="1" source="JIYJ0liamTjXYSsqaaI1-6" target="JIYJ0liamTjXYSsqaaI1-11">
          <mxGeometry relative="1" as="geometry" />
        </mxCell>
        <mxCell id="JIYJ0liamTjXYSsqaaI1-27" style="rounded=0;orthogonalLoop=1;jettySize=auto;html=1;exitX=0.5;exitY=0.5;exitDx=0;exitDy=0;exitPerimeter=0;" edge="1" parent="1" source="JIYJ0liamTjXYSsqaaI1-6">
          <mxGeometry relative="1" as="geometry">
            <mxPoint x="380" y="460" as="targetPoint" />
          </mxGeometry>
        </mxCell>
        <mxCell id="JIYJ0liamTjXYSsqaaI1-6" value="" style="shape=umlActor;verticalLabelPosition=bottom;verticalAlign=top;html=1;" vertex="1" parent="1">
          <mxGeometry x="520" y="420" width="30" height="60" as="geometry" />
        </mxCell>
        <mxCell id="JIYJ0liamTjXYSsqaaI1-7" value="View Products" style="ellipse;whiteSpace=wrap;html=1;" vertex="1" parent="1">
          <mxGeometry x="230" y="210" width="140" height="70" as="geometry" />
        </mxCell>
        <mxCell id="JIYJ0liamTjXYSsqaaI1-15" value="Include" style="edgeStyle=orthogonalEdgeStyle;rounded=0;orthogonalLoop=1;jettySize=auto;html=1;exitX=0.5;exitY=0;exitDx=0;exitDy=0;entryX=0.5;entryY=1;entryDx=0;entryDy=0;dashed=1;dashPattern=8 8;" edge="1" parent="1" source="JIYJ0liamTjXYSsqaaI1-8" target="JIYJ0liamTjXYSsqaaI1-7">
          <mxGeometry relative="1" as="geometry" />
        </mxCell>
        <mxCell id="JIYJ0liamTjXYSsqaaI1-16" value="Include" style="edgeStyle=orthogonalEdgeStyle;rounded=0;orthogonalLoop=1;jettySize=auto;html=1;exitX=0.5;exitY=1;exitDx=0;exitDy=0;entryX=0.5;entryY=0;entryDx=0;entryDy=0;dashed=1;dashPattern=8 8;" edge="1" parent="1" source="JIYJ0liamTjXYSsqaaI1-8" target="JIYJ0liamTjXYSsqaaI1-10">
          <mxGeometry relative="1" as="geometry" />
        </mxCell>
        <mxCell id="JIYJ0liamTjXYSsqaaI1-8" value="Buy Products" style="ellipse;whiteSpace=wrap;html=1;" vertex="1" parent="1">
          <mxGeometry x="230" y="320" width="140" height="70" as="geometry" />
        </mxCell>
        <mxCell id="JIYJ0liamTjXYSsqaaI1-10" value="Checkout" style="ellipse;whiteSpace=wrap;html=1;" vertex="1" parent="1">
          <mxGeometry x="230" y="430" width="140" height="70" as="geometry" />
        </mxCell>
        <mxCell id="JIYJ0liamTjXYSsqaaI1-11" value="Registration" style="ellipse;whiteSpace=wrap;html=1;" vertex="1" parent="1">
          <mxGeometry x="230" y="100" width="140" height="70" as="geometry" />
        </mxCell>
        <mxCell id="JIYJ0liamTjXYSsqaaI1-12" value="&lt;div&gt;Authentication&lt;br&gt;&lt;/div&gt;" style="text;html=1;align=center;verticalAlign=middle;resizable=0;points=[];autosize=1;strokeColor=none;fillColor=none;" vertex="1" parent="1">
          <mxGeometry x="485" y="480" width="100" height="30" as="geometry" />
        </mxCell>
        <mxCell id="JIYJ0liamTjXYSsqaaI1-25" style="rounded=0;orthogonalLoop=1;jettySize=auto;html=1;exitX=0.5;exitY=0.5;exitDx=0;exitDy=0;exitPerimeter=0;entryX=1;entryY=0.5;entryDx=0;entryDy=0;" edge="1" parent="1" source="JIYJ0liamTjXYSsqaaI1-13" target="JIYJ0liamTjXYSsqaaI1-10">
          <mxGeometry relative="1" as="geometry" />
        </mxCell>
        <mxCell id="JIYJ0liamTjXYSsqaaI1-13" value="Payment Method" style="shape=umlActor;verticalLabelPosition=bottom;verticalAlign=top;html=1;" vertex="1" parent="1">
          <mxGeometry x="560" y="280" width="30" height="60" as="geometry" />
        </mxCell>
        <mxCell id="JIYJ0liamTjXYSsqaaI1-18" value="" style="endArrow=classic;html=1;rounded=0;entryX=-0.014;entryY=0.414;entryDx=0;entryDy=0;entryPerimeter=0;" edge="1" parent="1" target="JIYJ0liamTjXYSsqaaI1-7">
          <mxGeometry width="50" height="50" relative="1" as="geometry">
            <mxPoint x="60" y="270" as="sourcePoint" />
            <mxPoint x="110" y="220" as="targetPoint" />
          </mxGeometry>
        </mxCell>
        <mxCell id="JIYJ0liamTjXYSsqaaI1-21" value="New Customer" style="shape=umlActor;verticalLabelPosition=bottom;verticalAlign=top;html=1;" vertex="1" parent="1">
          <mxGeometry x="40" y="70" width="30" height="60" as="geometry" />
        </mxCell>
        <mxCell id="JIYJ0liamTjXYSsqaaI1-24" value="" style="endArrow=classic;html=1;rounded=0;entryX=0;entryY=0.5;entryDx=0;entryDy=0;" edge="1" parent="1" source="JIYJ0liamTjXYSsqaaI1-21" target="JIYJ0liamTjXYSsqaaI1-11">
          <mxGeometry width="50" height="50" relative="1" as="geometry">
            <mxPoint x="250" y="280" as="sourcePoint" />
            <mxPoint x="300" y="230" as="targetPoint" />
          </mxGeometry>
        </mxCell>
        <mxCell id="JIYJ0liamTjXYSsqaaI1-30" style="rounded=0;orthogonalLoop=1;jettySize=auto;html=1;exitX=0.5;exitY=0.5;exitDx=0;exitDy=0;exitPerimeter=0;entryX=1;entryY=0.5;entryDx=0;entryDy=0;" edge="1" parent="1" source="JIYJ0liamTjXYSsqaaI1-28" target="JIYJ0liamTjXYSsqaaI1-7">
          <mxGeometry relative="1" as="geometry" />
        </mxCell>
        <mxCell id="JIYJ0liamTjXYSsqaaI1-28" value="Identification" style="shape=umlActor;verticalLabelPosition=bottom;verticalAlign=top;html=1;" vertex="1" parent="1">
          <mxGeometry x="540" y="160" width="30" height="60" as="geometry" />
        </mxCell>
        <mxCell id="JIYJ0liamTjXYSsqaaI1-29" style="rounded=0;orthogonalLoop=1;jettySize=auto;html=1;exitX=0.5;exitY=0.5;exitDx=0;exitDy=0;exitPerimeter=0;entryX=1.023;entryY=0.379;entryDx=0;entryDy=0;entryPerimeter=0;" edge="1" parent="1" source="JIYJ0liamTjXYSsqaaI1-28" target="JIYJ0liamTjXYSsqaaI1-10">
          <mxGeometry relative="1" as="geometry" />
        </mxCell>
        <mxCell id="JIYJ0liamTjXYSsqaaI1-31" style="edgeStyle=orthogonalEdgeStyle;rounded=0;orthogonalLoop=1;jettySize=auto;html=1;entryX=0.5;entryY=0;entryDx=0;entryDy=0;entryPerimeter=0;" edge="1" parent="1" target="JIYJ0liamTjXYSsqaaI1-5">
          <mxGeometry relative="1" as="geometry">
            <mxPoint x="55" y="130" as="sourcePoint" />
          </mxGeometry>
        </mxCell>
        <mxCell id="JIYJ0liamTjXYSsqaaI1-32" style="rounded=0;orthogonalLoop=1;jettySize=auto;html=1;exitX=0.5;exitY=0.5;exitDx=0;exitDy=0;exitPerimeter=0;entryX=0.09;entryY=0.261;entryDx=0;entryDy=0;entryPerimeter=0;" edge="1" parent="1" source="JIYJ0liamTjXYSsqaaI1-21" target="JIYJ0liamTjXYSsqaaI1-7">
          <mxGeometry relative="1" as="geometry" />
        </mxCell>
        <mxCell id="JIYJ0liamTjXYSsqaaI1-33" value="Online&amp;nbsp;&lt;div&gt;Shopping&lt;/div&gt;" style="text;html=1;align=center;verticalAlign=middle;resizable=0;points=[];autosize=1;strokeColor=none;fillColor=none;" vertex="1" parent="1">
          <mxGeometry x="255" y="33" width="70" height="40" as="geometry" />
        </mxCell>
      </root>
    </mxGraphModel>
  </diagram>
</mxfile>
